<?xml version="1.0" encoding="iso-8859-1"?>
<!-- Generator: Adobe Illustrator 19.1.0, SVG Export Plug-In . SVG Version: 6.00 Build 0)  -->
<svg version="1.1" id="Capa_1" xmlns="http://www.w3.org/2000/svg" xmlns:xlink="http://www.w3.org/1999/xlink" x="0px" y="0px"
	 viewBox="0 0 487.675 487.675" style="enable-background:new 0 0 487.675 487.675;" xml:space="preserve">
<g>
	<g>
		<path d="M99.687,407.875h-33.6c-13.7,0-24.9-11.2-24.9-24.9v-278.4c0-13.7,11.2-24.9,24.9-24.9h227.3l-29.6,29.6
			c-5.3,5.3-5.3,13.8,0,19.1c2.6,2.6,6.1,4,9.5,4c3.5,0,6.9-1.3,9.5-4l52.7-52.7c2.5-2.5,4-6,4-9.5c0-3.5-1.4-7-4-9.5l-52.7-52.7
			c-5.3-5.3-13.8-5.3-19.1,0c-5.3,5.3-5.3,13.8,0,19.1l29.6,29.6h-227.2c-28.6,0-51.9,23.3-51.9,51.9v278.5
			c0,28.6,23.3,51.9,51.9,51.9h33.7c7.5,0,13.5-6,13.5-13.5S107.187,407.875,99.687,407.875z"/>
		<path d="M421.687,52.675h-33.7c-7.5,0-13.5,6-13.5,13.5s6,13.5,13.5,13.5h33.7c13.7,0,24.9,11.2,24.9,24.9v278.5
			c0,13.7-11.2,24.9-24.9,24.9h-227.3l29.6-29.6c5.3-5.3,5.3-13.8,0-19.1c-5.3-5.3-13.8-5.3-19.1,0l-52.7,52.7c-2.5,2.5-4,6-4,9.5
			s1.4,7,4,9.5l52.7,52.7c2.6,2.6,6.1,4,9.5,4s6.9-1.3,9.5-4c5.3-5.3,5.3-13.8,0-19.1l-29.6-29.6h227.3c28.6,0,51.9-23.3,51.9-51.9
			v-278.5C473.587,75.875,450.287,52.675,421.687,52.675z"/>
	</g>
</g>
<g>
</g>
<g>
</g>
<g>
</g>
<g>
</g>
<g>
</g>
<g>
</g>
<g>
</g>
<g>
</g>
<g>
</g>
<g>
</g>
<g>
</g>
<g>
</g>
<g>
</g>
<g>
</g>
<g>
</g>
</svg>
