<?xml version="1.0" encoding="iso-8859-1"?>
<!-- Generator: Adobe Illustrator 19.0.0, SVG Export Plug-In . SVG Version: 6.00 Build 0)  -->
<svg version="1.1" id="Layer_1" xmlns="http://www.w3.org/2000/svg" xmlns:xlink="http://www.w3.org/1999/xlink" x="0px" y="0px"
	 viewBox="0 0 512 512" style="enable-background:new 0 0 512 512;" xml:space="preserve">
<g>
	<g>
		<path d="M460.8,409.667H317.979v-37.684h29.642c31.203,0,56.589-25.369,56.589-56.553s-25.387-56.552-56.589-56.552h-29.642
			v-56.54c0-4.466-3.618-8.083-8.084-8.083c-4.466,0-8.084,3.618-8.084,8.084v153.475h-91.621V178.11h156.373
			c28.231,0,51.2-22.953,51.2-51.167v-56.54h28.005c3.608,0,7.015-1.693,9.35-4.649c0.001-0.001,0.002-0.002,0.003-0.004
			c3.968-5.026,3.968-12.607-0.001-17.635L422.039,6.229C418.914,2.27,414.409,0,409.68,0c-4.729,0-9.233,2.27-12.36,6.228
			l-33.081,41.887c-3.971,5.027-3.971,12.61,0.002,17.64c2.335,2.955,5.742,4.649,9.35,4.649h28.004v56.54
			c0,19.298-15.715,34.998-35.032,34.998h-48.584v-26.14h17.37c4.952,0,9.675-2.385,12.957-6.542c5.927-7.504,5.927-19.262,0-26.766
			L275.57,10.393C270.546,4.031,263.414,0.383,256,0.384c-7.412,0-14.545,3.649-19.568,10.009l-72.738,92.101
			c-5.926,7.504-5.926,19.262,0,26.766c3.283,4.157,8.007,6.542,12.957,6.542h17.37v26.14h-18.863
			c-31.204,0-56.589,25.369-56.589,56.553c0,31.183,25.385,56.552,56.589,56.552h18.863v80.768h-18.863
			c-30.299,0-55.113,23.917-56.526,53.853H51.2c-28.231,0-51.2,22.954-51.2,51.168C0,489.048,22.969,512,51.2,512h409.6
			c28.231,0,51.2-22.953,51.2-51.167C512,432.62,489.031,409.667,460.8,409.667z M317.979,275.046h29.642
			c22.289,0,40.421,18.116,40.421,40.383c0,22.268-18.132,40.384-40.421,40.384h-26.947h-2.695V275.046z M380.009,54.235
			l29.67-37.569l29.671,37.569h-29.671H380.009z M176.786,119.633c-0.081-0.053-0.229-0.174-0.404-0.394
			c-1.34-1.697-1.34-5.027,0-6.724l72.737-92.101c1.967-2.491,4.411-3.862,6.88-3.862c2.471-0.001,4.914,1.371,6.881,3.862
			l72.736,92.101c1.34,1.697,1.34,5.027-0.001,6.725c-0.174,0.221-0.322,0.341-0.403,0.393h-25.318
			c-4.466,0-8.084,3.619-8.084,8.084v34.224h-91.621v-34.224c0-4.466-3.62-8.084-8.084-8.084H176.786z M175.158,258.878
			c-22.289,0-40.421-18.116-40.421-40.384c0-22.267,18.132-40.383,40.421-40.383h18.863v80.768H175.158z M175.158,371.983h126.653
			v80.768h-91.621v-56.54c0-4.466-3.62-8.084-8.084-8.084c-4.465,0-8.084,3.619-8.084,8.084v13.456h-59.195
			C136.22,388.651,153.777,371.983,175.158,371.983z M194.021,425.835v26.915h-18.863c-17.563,0-32.546-11.249-38.109-26.915
			H194.021z M460.8,495.832H51.2c-19.316,0-35.032-15.7-35.032-34.998c0-19.299,15.716-34.999,35.032-34.999h68.99
			c2.549,10.389,7.979,19.659,15.39,26.915H61.979c-4.465,0-8.084,3.618-8.084,8.084c0,4.466,3.62,8.084,8.084,8.084h388.042
			c4.466,0,8.084-3.618,8.084-8.084c0-4.466-3.619-8.084-8.084-8.084H317.979v-26.915H460.8c19.317,0,35.032,15.7,35.032,34.999
			C495.832,480.132,480.117,495.832,460.8,495.832z"/>
	</g>
</g>
<g>
</g>
<g>
</g>
<g>
</g>
<g>
</g>
<g>
</g>
<g>
</g>
<g>
</g>
<g>
</g>
<g>
</g>
<g>
</g>
<g>
</g>
<g>
</g>
<g>
</g>
<g>
</g>
<g>
</g>
</svg>
