<?xml version="1.0" encoding="iso-8859-1"?>
<!-- Generator: Adobe Illustrator 19.0.0, SVG Export Plug-In . SVG Version: 6.00 Build 0)  -->
<svg version="1.1" id="Layer_1" xmlns="http://www.w3.org/2000/svg" xmlns:xlink="http://www.w3.org/1999/xlink" x="0px" y="0px"
	 viewBox="0 0 502 502" style="enable-background:new 0 0 502 502;" xml:space="preserve">
<g>
	<g>
		<g>
			<path d="M408.851,347.434c-2.047-2.047-4.88-3.102-7.767-2.904c-1.083,0.076-23.592,1.681-49.68,6.161V60.246
				c0-5.522-4.478-10-10-10h-67.044V10c0-5.522-4.478-10-10-10h-87.094c-5.523,0-10,4.478-10,10v40.246h-67.045
				c-5.523,0-10,4.478-10,10v394.158c0,5.522,4.477,10,10,10h162.978c1.688,3.083,3.595,6.03,5.711,8.829l-11.635,11.635
				c-3.905,3.905-3.905,10.237,0,14.143c1.953,1.952,4.512,2.929,7.071,2.929s5.118-0.977,7.071-2.929l11.635-11.635
				c12.501,9.481,27.667,14.624,43.63,14.624c19.337,0,37.518-7.53,51.191-21.204c26.254-26.254,33.18-115.505,33.883-125.596
				C411.956,352.313,410.897,349.48,408.851,347.434z M187.265,20h67.094v30.246h-67.094V20z M255.803,444.414l-0.014-0.01H110.221
				V70.246h221.184v284.37l0.005,0.002c-27.836,6.24-46.176,14.049-55.921,23.794C257.872,396.029,250.795,420.771,255.803,444.414z
				 M363.73,466.653C353.833,476.55,340.676,482,326.681,482c-10.601,0-20.718-3.133-29.304-8.95l23.893-23.893
				c3.905-3.905,3.905-10.237,0-14.143c-3.906-3.904-10.236-3.904-14.143,0L283.241,458.9c-1.796-2.663-3.348-5.49-4.636-8.468
				c-8.598-19.864-4.27-42.583,11.026-57.878c4.316-4.316,17.037-12.658,53.743-20.034c18.097-3.635,36.131-5.829,47.432-6.986
				C387.254,401.35,377.915,452.469,363.73,466.653z"/>
			<path d="M223.797,353.046h-85.612c-5.523,0-10,4.478-10,10v53.394c0,5.522,4.477,10,10,10h85.612c5.523,0,10-4.478,10-10v-53.394
				C233.797,357.523,229.32,353.046,223.797,353.046z M213.797,406.439h-65.612v-33.394h65.612V406.439z"/>
			<path d="M313.44,327.806v-53.395c0-5.522-4.478-10-10-10H138.185c-5.523,0-10,4.478-10,10v53.395c0,5.522,4.477,10,10,10H303.44
				C308.963,337.806,313.44,333.328,313.44,327.806z M293.44,317.806H148.185v-33.395H293.44V317.806z"/>
			<path d="M138.185,250.239H303.44c5.522,0,10-4.478,10-10v-53.395c0-5.522-4.478-10-10-10H138.185c-5.523,0-10,4.478-10,10v53.395
				C128.185,245.762,132.661,250.239,138.185,250.239z M148.185,196.845H293.44v33.395H148.185V196.845z"/>
			<path d="M138.185,161.604H303.44c5.522,0,10-4.478,10-10V98.211c0-5.522-4.478-10-10-10H138.185c-5.523,0-10,4.478-10,10v53.394
				C128.185,157.127,132.661,161.604,138.185,161.604z M148.185,108.211H293.44v33.394H148.185V108.211z"/>
			<path d="M334.974,407.04l-5.579,5.579c-3.905,3.905-3.905,10.237,0,14.143c1.953,1.952,4.512,2.929,7.071,2.929
				s5.118-0.977,7.071-2.929l5.579-5.579c3.905-3.905,3.905-10.237,0-14.143C345.21,403.136,338.88,403.136,334.974,407.04z"/>
		</g>
	</g>
</g>
<g>
</g>
<g>
</g>
<g>
</g>
<g>
</g>
<g>
</g>
<g>
</g>
<g>
</g>
<g>
</g>
<g>
</g>
<g>
</g>
<g>
</g>
<g>
</g>
<g>
</g>
<g>
</g>
<g>
</g>
</svg>
